# xmcd
#
# Track frame offsets:
#	150
#	10619
#	20907
#	32848
#	46863
#	58949
#	68536
#	78886
#	90864
#	102385
#	114466
#	127719
#	141105
#	153431
#	166662
#	178775
#	190579
#	202175
#
# Disc length: 2866 seconds
#
# Revision: 4
# Processed by: cddbd v1.4PL0 Copyright (c) Steve Scherf et al.
# Submitted via: audiograbber 1.81.03
#
DISCID=de0b3012
DTITLE=Various Artist - How Long, How Long Blues - CD 2
DYEAR=2001
DGENRE=Blues
TTITLE0=Jack Dupree - Let's Have A Ball
TTITLE1=Ralph Willis - I'm Gonna Rock
TTITLE2=Brownie McGhee - My Fault
TTITLE3=Sticks McGhee and His Buddies - Drinkin' Wine Spo-Dee-O-Dee
TTITLE4=Brownie McGhee - Hard Bed Blues
TTITLE5=Brother Blues and The Backroom Boys - Featherweight Mama
TTITLE6=Memphis Slim - The Comeback
TTITLE7=Big Jay McNeely - Deacon's Hop
TTITLE8=Noble Watts and June Bateman - Go Away Mr.Blues
TTITLE9=Arthur Crudup - Shout Sister Shout
TTITLE10=Sonny Boy Williamson - Better Cut That Out
TTITLE11=Robert Johnson - They're Red Hot
TTITLE12=Sticks McGhee and His Buddies - Blues Mixture (I'd Rather Drink Muddy Wa
TTITLE12=ter)
TTITLE13=Paul Williams - The Hucklebuck
TTITLE14=Ivory Joe Hunter - High Cost Low Pay Blues
TTITLE15=Morris Lane Band - Bobby's Boogie
TTITLE16=Roy Montrell - Mudd
TTITLE17=The Du-Droppers - I Can't Do Sixty No More
EXTD=ID3G:   0
EXTT0=
EXTT1=
EXTT2=
EXTT3=
EXTT4=
EXTT5=
EXTT6=
EXTT7=
EXTT8=
EXTT9=
EXTT10=
EXTT11=
EXTT12=
EXTT13=
EXTT14=
EXTT15=
EXTT16=
EXTT17=
PLAYORDER=
